<svg xmlns="http://www.w3.org/2000/svg" version="1.1" xmlns:xlink="http://www.w3.org/1999/xlink" xmlns:svgjs="http://svgjs.dev/svgjs" width="100%" height="100%" viewBox="0 0 1000 600"><rect width="1000" height="600" x="0" y="0" fill="FFFFFF"/><g><rect width="333.3333333333333" height="333.3333333333333" rx="13.333333333333334" ry="13.333333333333334" y="224.68744860826462" fill="000000" transform="matrix(0.6173899445012286,0,0,0.6173899445012286,0,58.38189283598109)" x="202.46528625488278"/><path d="M259.1866764326392 466.35411905399064L259.1866764326392 466.35411905399064L259.1866764326392 463.18673334908544Q266.6774280267216 463.02489612328736 271.76374083751824 459.5107163631005Q276.82693404462947 456.0196562065992 279.4163296573987 447.9509145203808Q281.98260566648247 439.8821728341625 281.98260566648247 426.4034438855513L281.98260566648247 426.4034438855513L281.98260566648247 334.84981329121115Q281.98260566648247 328.67687910719883 280.9884627080086 325.76380904283343Q279.99431974953467 322.8507389784681 277.0812496851693 321.76411760525247Q274.168179620804 320.7006158357222 268.5038767178713 320.5156590062387L268.5038767178713 320.5156590062387L268.5038767178713 317.1864360755355Q271.9949368743726 317.371392905019 277.65923977730534 317.533230130817Q283.32354268023795 317.6950673566151 289.47335726056485 317.6950673566151L289.47335726056485 317.6950673566151Q295.64629144457723 317.6950673566151 301.37995315856614 317.533230130817Q307.1367344762406 317.371392905019 310.9514690843381 317.1864360755355L310.9514690843381 317.1864360755355L310.9514690843381 320.5156590062387Q305.28716618140544 320.7006158357222 302.3740961170401 321.76411760525247Q299.4610260526747 322.8507389784681 298.4668830942008 325.76380904283343Q297.4727401357269 328.67687910719883 297.4727401357269 334.84981329121115L297.4727401357269 334.84981329121115L297.4727401357269 395.76996900234406Q297.4727401357269 402.5902520895487 297.31090290992887 410.58963496471074Q297.1490656841308 418.5658982361873 296.5479559883093 426.05664983026975Q295.96996589617333 433.5474014243521 294.6521484861033 439.21170432728474L294.6521484861033 439.21170432728474Q291.80843723279423 450.8639845847462 282.745552588102 458.60905181936846Q273.65954833972427 466.35411905399064 259.1866764326392 466.35411905399064ZM366.23044149622376 317.1864360755355L366.23044149622376 317.1864360755355L366.23044149622376 320.5156590062387Q360.5661385932911 320.7006158357222 357.65306852892576 321.76411760525247Q354.7399984645604 322.8507389784681 353.74585550608646 325.76380904283343Q352.72859294392714 328.67687910719883 352.72859294392714 334.84981329121115L352.72859294392714 334.84981329121115L352.72859294392714 417.4099180519154Q352.72859294392714 423.39789540644415 353.74585550608646 426.4034438855513Q354.7399984645604 429.385872760973 357.65306852892576 430.3800157194469Q360.5661385932911 431.3972782816062 366.23044149622376 431.72095273320235L366.23044149622376 431.72095273320235L366.23044149622376 435.05017566390563Q362.3925872844408 434.7265012123095 356.65892557045186 434.63402279756775Q350.9021442527774 434.541544382826 345.0760041240467 434.541544382826L345.0760041240467 434.541544382826Q338.5793954884382 434.541544382826 332.938212189191 434.63402279756775Q327.27390928625834 434.7265012123095 323.782849129757 435.05017566390563L323.782849129757 435.05017566390563L323.782849129757 431.72095273320235Q329.42403242900417 431.3972782816062 332.33710249336957 430.3800157194469Q335.2501725577349 429.385872760973 336.2674351198943 426.4034438855513Q337.26157807836813 423.39789540644415 337.26157807836813 417.4099180519154L337.26157807836813 417.4099180519154L337.26157807836813 334.84981329121115Q337.26157807836813 328.67687910719883 336.2674351198943 325.76380904283343Q335.2501725577349 322.8507389784681 332.33710249336957 321.76411760525247Q329.42403242900417 320.7006158357222 323.782849129757 320.5156590062387L323.782849129757 320.5156590062387L323.782849129757 317.1864360755355Q327.27390928625834 317.371392905019 332.938212189191 317.533230130817Q338.5793954884382 317.6950673566151 345.0760041240467 317.6950673566151L345.0760041240467 317.6950673566151Q350.9021442527774 317.6950673566151 356.65892557045186 317.533230130817Q362.3925872844408 317.371392905019 366.23044149622376 317.1864360755355ZM426.9887599815586 316.3541303428596L426.9887599815586 316.3541303428596L467.58678405319023 421.0628154342148Q470.08370125121763 427.3975868440252 473.25108695612283 429.47835117571475Q476.41847266102803 431.5591155074043 479.07722708485363 431.72095273320235L479.07722708485363 431.72095273320235L479.07722708485363 435.05017566390563Q475.74800415415035 434.7265012123095 470.9160069838935 434.63402279756775Q466.1071294173221 434.541544382826 461.27513224706524 434.541544382826L461.27513224706524 434.541544382826Q454.77852361145676 434.541544382826 449.1142207085241 434.63402279756775Q443.4499178055915 434.7265012123095 439.95885764909013 435.05017566390563L439.95885764909013 435.05017566390563L439.95885764909013 431.72095273320235Q448.4437522016464 431.3972782816062 450.77883217387574 428.807882668837Q453.1139121461051 426.2184870560678 449.78468921540184 417.73359250351155L449.78468921540184 417.73359250351155L418.82753988059847 335.01165051700923L421.486294304424 332.83840777057793L392.5174308865684 408.0927177666833Q389.85867646274284 414.75116362808984 389.3500451816632 419.3288451578068Q388.864533504269 423.90652668752386 390.2748293290808 426.56528111134935Q391.68512515389256 429.2240355351749 395.1068264993376 430.3800157194469Q398.5054082410972 431.5591155074043 403.6841994666357 431.72095273320235L403.6841994666357 431.72095273320235L403.6841994666357 435.05017566390563Q399.01403952217686 434.7265012123095 393.9277267113802 434.63402279756775Q388.864533504269 434.541544382826 384.5411676150918 434.541544382826L384.5411676150918 434.541544382826Q380.3796389517127 434.541544382826 377.4665688873473 434.63402279756775Q374.55349882298196 434.7265012123095 372.0565816249545 435.05017566390563L372.0565816249545 435.05017566390563L372.0565816249545 431.72095273320235Q375.3858045556578 430.8886470005266 378.87686471215915 427.8137397103631Q382.3679248686605 424.7388324201997 385.1885165182841 417.2480808261173L385.1885165182841 417.2480808261173L424.3068859540476 316.3541303428596Q424.97735446092537 316.3541303428596 425.64782296780305 316.3541303428596Q426.31829147468085 316.3541303428596 426.9887599815586 316.3541303428596ZM399.337713973773 387.1001176203043L447.2877720173744 387.1001176203043L447.2877720173744 390.42934055100756L397.6731025084214 390.42934055100756L399.337713973773 387.1001176203043Z " fill="#234e70" transform="matrix(0.6173899445012286,0,0,0.6173899445012286,0,58.38189283598109)"/><path d="M619.1319508276146 320.5087584004994L619.1319508276146 316.3541134105673Q623.5174094280984 316.5849270211191 630.5572245499277 316.78688893035195Q637.6258913730759 316.9888508395847 644.4925962869914 316.9888508395847L644.4925962869914 316.9888508395847Q654.244471332804 316.9888508395847 663.1884987416855 316.78688893035195Q672.1036744492479 316.5849270211191 675.8543956207144 316.5849270211191L675.8543956207144 316.5849270211191Q697.6662818178576 316.5849270211191 708.6876317217051 325.7020646379144Q719.6801299242335 334.84805395602865 719.6801299242335 349.18734951155795L719.6801299242335 349.18734951155795Q719.6801299242335 356.457978243939 716.6795529870604 363.4112382618114Q713.6501243485683 370.36449827968374 706.6968643306959 376.0771351408403Q699.7436043128235 381.7897720019968 688.1163686812777 385.3385312642304L688.1163686812777 385.3385312642304L688.1163686812777 385.74245508269604Q704.532986731773 387.8197775776621 713.7655311538442 393.5324144388186Q722.9980755759154 399.24505129997516 726.7487967473818 406.9484555521408Q730.4995179188483 414.62300810298746 730.4995179188483 423.13425999208437L730.4995179188483 423.13425999208437Q730.4995179188483 434.992309234182 724.5560674471399 444.02289174702037Q718.6414686767506 453.0534742598588 707.4181568636703 458.2467804972738Q696.223696751909 463.44008673468886 680.6437780396639 463.44008673468886L680.6437780396639 463.44008673468886Q676.0563575299471 463.44008673468886 666.910368211833 463.1227180201802Q657.7932305950377 462.8053493056715 644.896520105457 462.8053493056715L644.896520105457 462.8053493056715Q637.6258913730759 462.8053493056715 630.5572245499277 462.9207561109473Q623.5174094280984 463.03616291622325 619.1319508276146 463.44008673468886L619.1319508276146 463.44008673468886L619.1319508276146 459.2854417447568Q626.2006176507629 458.88151792629117 629.8359320169533 457.6120430682564Q633.4712463831439 456.37141991154056 634.7118695398598 452.64955044139316Q635.9813443978945 448.89882926992675 635.9813443978945 441.4262386283129L635.9813443978945 441.4262386283129L635.9813443978945 338.39681321826225Q635.9813443978945 330.6934089660966 634.7118695398598 327.0580945999061Q633.4712463831439 323.42278023371557 629.8359320169533 322.0667502717239Q626.2006176507629 320.73957201105117 619.1319508276146 320.5087584004994L619.1319508276146 320.5087584004994ZM670.6610893832993 320.5087584004994L670.6610893832993 320.5087584004994Q661.1111762467195 320.5087584004994 658.1971544135032 324.057517662733Q655.2831325802871 327.5774252236476 655.2831325802871 338.39681321826225L655.2831325802871 338.39681321826225L655.2831325802871 441.4262386283129Q655.2831325802871 448.6968673606939 656.523755737003 452.41873683084134Q657.7932305950377 456.1694580023078 661.1111762467195 457.41008115902355Q664.4291218984014 458.6507043157394 670.8630512925322 458.6507043157394L670.8630512925322 458.6507043157394Q691.2323524237268 458.6507043157394 700.4648968457979 449.21619798443544Q709.7262929691881 439.75283995181246 709.7262929691881 422.2975606538341L709.7262929691881 422.2975606538341Q709.7262929691881 406.3137181231234 701.0996342748152 397.60050432479375Q692.4729755804425 388.8584388251451 672.7384118782653 388.8584388251451L672.7384118782653 388.8584388251451L651.3304494995879 388.8584388251451Q651.3304494995879 388.8584388251451 651.3304494995879 387.0984850446878Q651.3304494995879 385.3385312642304 651.3304494995879 385.3385312642304L651.3304494995879 385.3385312642304L669.2185043173507 385.3385312642304Q681.4516256765951 385.3385312642304 688.1163686812777 380.6645556505569Q694.7522599846413 375.9905800368834 697.262357999392 368.20062068076084Q699.7436043128235 360.4106613246382 699.7436043128235 351.4666339157568L699.7436043128235 351.4666339157568Q699.7436043128235 336.0886771127445 692.992306204184 328.2987177566219Q686.2410080955445 320.5087584004994 670.6610893832993 320.5087584004994ZM775.3639134698503 464.88267180063747L775.3639134698503 464.88267180063747Q766.8526615807535 464.88267180063747 760.6206940958555 461.68013295423157Q754.3887266109574 458.44874240650665 751.1573360632325 452.64955044139316Q747.9259455155076 446.8215067749607 747.9259455155076 439.14695422411404L747.9259455155076 439.14695422411404Q747.9259455155076 430.00096490599975 752.1959973107155 424.17292123956736Q756.4660491059234 418.3737292744539 763.1019404092871 414.82497001222026Q769.7378317126507 411.3050624513056 777.1238672503077 408.91037124183094Q784.5099027879646 406.5156800323562 791.1457940913283 404.35180243343325Q797.781685394692 402.1590731331914 802.0517371898999 399.24505129997516Q806.3217889851078 396.33102946675893 806.3217889851078 391.5704987491285L806.3217889851078 391.5704987491285L806.3217889851078 378.6737882595478Q806.3217889851078 369.96057446121813 803.7251358664003 365.4020056528205Q801.1284827476927 360.81458514310384 796.743024147209 359.25659327187935Q792.386417248044 357.69860140065487 786.9911491013962 357.69860140065487L786.9911491013962 357.69860140065487Q781.7978428639813 357.69860140065487 775.8832440935919 359.1700381679224Q769.9686453232025 360.6126232338711 766.4198860609689 365.1711920422687L766.4198860609689 365.1711920422687Q770.3725691416681 366.0078913805189 773.2865909748843 369.32583703220075Q776.2006128081006 372.67263438520155 776.2006128081006 377.86594062261656L776.2006128081006 377.86594062261656Q776.2006128081006 383.05924686003164 772.8538154550997 386.0598237972048Q769.535869803418 389.0604007343779 764.3425635660029 389.0604007343779L764.3425635660029 389.0604007343779Q758.3125579903376 389.0604007343779 755.5139429623973 385.22312445895454Q752.715327934457 381.3858481835312 752.715327934457 376.5964657645818L752.715327934457 376.5964657645818Q752.715327934457 371.20119761793393 755.4273878584404 367.88325196625215Q758.1105960811049 364.5653063145703 762.2652410710369 361.6512844813541L762.2652410710369 361.6512844813541Q767.0546234899863 358.33333882967224 774.642620936876 355.9386476201975Q782.2017666824469 353.5439564107228 791.7805315203457 353.5439564107228L791.7805315203457 353.5439564107228Q800.2917834094426 353.5439564107228 806.3217889851078 355.5347238017319Q812.3229428594541 357.49663949142206 816.2756259401533 361.24736066288847L816.2756259401533 361.24736066288847Q821.6708940868011 366.2098532897517 823.3442927633015 373.39392691817585Q825.017691439802 380.549148845281 825.017691439802 390.5318375016455L825.017691439802 390.5318375016455L825.017691439802 448.2640918409094Q825.017691439802 453.4573980783244 826.5756833110264 455.7655341838422Q828.133675182251 458.04481858804104 831.4516208339328 458.04481858804104L831.4516208339328 458.04481858804104Q833.7309052381316 458.04481858804104 835.8082277330976 457.00615734055805Q837.8855502280636 455.96749609307494 840.7995720612798 453.68821168887615L840.7995720612798 453.68821168887615L843.0788564654787 457.2081192497908Q838.7222495663138 460.52606490147264 834.7695664856146 462.71879420171456Q830.8168834049154 464.88267180063747 824.1809921015517 464.88267180063747L824.1809921015517 464.88267180063747Q818.1509865258865 464.88267180063747 814.1983034451872 462.8053493056715Q810.2456203644881 460.72802681070544 808.283704674798 456.68878862604925Q806.3217889851078 452.64955044139316 806.3217889851078 446.4175829564951L806.3217889851078 446.4175829564951Q800.6957072279082 455.7655341838422 792.9057478717856 460.32410299223983Q785.115788515663 464.88267180063747 775.3639134698503 464.88267180063747ZM782.8365041114643 456.5733818207734L782.8365041114643 456.5733818207734Q789.7032090253797 456.5733818207734 795.617807795769 452.64955044139316Q801.5324065661583 448.6968673606939 806.3217889851078 440.79150119929545L806.3217889851078 440.79150119929545L806.3217889851078 400.08175063822534Q803.8116909703572 403.60165819914 799.0511602527267 405.9963494086147Q794.2617778337773 408.3910406180894 788.6645477778967 410.7857318275641Q783.038466020697 413.18042303703885 777.9605665885579 416.3829618834448Q772.8538154550997 419.6143524311697 769.535869803418 424.80765866858474Q766.2179241517362 430.00096490599975 766.2179241517362 438.31025488586386L766.2179241517362 438.31025488586386Q766.2179241517362 446.6195448657279 770.6899378561768 451.6108891939101Q775.1619515606176 456.5733818207734 782.8365041114643 456.5733818207734ZM917.8624662842552 353.5439564107228L917.8624662842552 353.5439564107228Q925.1330950166363 353.5439564107228 930.5283631632842 355.6212789056888Q935.923631309932 357.69860140065487 939.4723905721656 361.4493225721213L939.4723905721656 361.4493225721213Q943.4250736528649 365.6039675620533 944.8676587188135 372.239858865417Q946.3102437847621 378.9046018700996 946.3102437847621 388.65647691591226L946.3102437847621 388.65647691591226L946.3102437847621 444.1094468509773Q946.3102437847621 452.85151235062597 949.9455581509527 455.96749609307494Q953.5808725171431 459.08347983552403 962.1209761075589 459.08347983552403L962.1209761075589 459.08347983552403L962.1209761075589 463.44008673468886Q958.5722168453254 463.238124825456 951.3015881129444 462.9207561109473Q944.0309593805633 462.6033873964386 937.1931061679668 462.6033873964386L937.1931061679668 462.6033873964386Q930.3264012540513 462.6033873964386 923.7770650546446 462.9207561109473Q917.2277288552378 463.238124825456 913.909783203556 463.44008673468886L913.909783203556 463.44008673468886L913.909783203556 459.08347983552403Q921.3823738451699 459.08347983552403 924.4983575876189 455.96749609307494Q927.614341330068 452.85151235062597 927.614341330068 444.1094468509773L927.614341330068 444.1094468509773L927.614341330068 384.0979081075146Q927.614341330068 377.6351270120648 926.8064936931368 372.239858865417Q925.9697943548866 366.8445907187691 922.6518487032048 363.52664506708726Q919.3050513502038 360.2086994154055 911.83246070859 360.2086994154055L911.83246070859 360.2086994154055Q903.7251326379587 360.2086994154055 897.4066100491037 365.1711920422687Q891.0592357589298 370.16253637045094 887.4239213927393 378.78919506482373Q883.7886070265489 387.41585375919647 883.7886070265489 398.00442814325936L883.7886070265489 398.00442814325936L883.7886070265489 444.1094468509773Q883.7886070265489 452.85151235062597 886.9045907689978 455.96749609307494Q890.0205745114469 459.08347983552403 897.4931651530607 459.08347983552403L897.4931651530607 459.08347983552403L897.4931651530607 463.44008673468886Q894.1752195013788 463.238124825456 887.6258833019721 462.9207561109473Q881.1053988038844 462.6033873964386 874.2386938899689 462.6033873964386L874.2386938899689 462.6033873964386Q867.3719889760536 462.6033873964386 860.1013602436724 462.9207561109473Q852.8307315112913 463.238124825456 849.3108239503767 463.44008673468886L849.3108239503767 463.44008673468886L849.3108239503767 459.08347983552403Q857.8220758394735 459.08347983552403 861.4573902056642 455.96749609307494Q865.0927045718547 452.85151235062597 865.0927045718547 444.1094468509773L865.0927045718547 444.1094468509773L865.0927045718547 379.1065637793324Q865.0927045718547 369.7586125519853 861.7747589201729 365.2865988475446Q858.456813268491 360.81458514310384 849.3108239503767 360.81458514310384L849.3108239503767 360.81458514310384L849.3108239503767 356.457978243939Q855.9467152537404 357.09271567295644 862.1786827386385 357.09271567295644L862.1786827386385 357.09271567295644Q868.2086883143037 357.09271567295644 873.7193632662274 356.34257143866313Q879.2300382181512 355.6212789056888 883.7886070265489 354.1786938397402L883.7886070265489 354.1786938397402L883.7886070265489 378.6737882595478Q889.1838751731967 365.1711920422687 898.5318264005438 359.37200007715523Q907.8797776278908 353.5439564107228 917.8624662842552 353.5439564107228ZM980.3841030424685 353.5439564107228L980.3841030424685 353.5439564107228Q987.6547317748497 353.5439564107228 993.0499999214975 355.6212789056888Q998.4741197694643 357.69860140065487 1001.9940273303789 361.4493225721213L1001.9940273303789 361.4493225721213Q1005.9467104110781 365.6039675620533 1007.3892954770267 372.239858865417Q1008.8607322442944 378.9046018700996 1008.8607322442944 388.65647691591226L1008.8607322442944 388.65647691591226L1008.8607322442944 444.1094468509773Q1008.8607322442944 452.85151235062597 1012.496046610485 455.96749609307494Q1016.1313609766754 459.08347983552403 1024.6426128657722 459.08347983552403L1024.6426128657722 459.08347983552403L1024.6426128657722 463.44008673468886Q1021.0938536035386 463.238124825456 1013.8232248711575 462.9207561109473Q1006.5525961387765 462.6033873964386 999.7147429261801 462.6033873964386L999.7147429261801 462.6033873964386Q992.8480380122647 462.6033873964386 986.2987018128579 462.9207561109473Q979.7782173147701 463.238124825456 976.4314199617694 463.44008673468886L976.4314199617694 463.44008673468886L976.4314199617694 459.08347983552403Q983.9328623047021 459.08347983552403 987.0488460471512 455.96749609307494Q990.1648297896003 452.85151235062597 990.1648297896003 444.1094468509773L990.1648297896003 444.1094468509773L990.1648297896003 384.0979081075146Q990.1648297896003 377.6351270120648 989.32813045135 372.239858865417Q988.4914311130998 366.8445907187691 985.173485461418 363.52664506708726Q981.8555398097361 360.2086994154055 974.3540974668033 360.2086994154055L974.3540974668033 360.2086994154055Q966.275621097491 360.2086994154055 959.9282468073171 365.1711920422687Q953.5808725171431 370.16253637045094 949.9455581509527 378.6737882595478Q946.3102437847621 387.21389184996366 946.3102437847621 397.80246623402655L946.3102437847621 397.80246623402655L945.7043580570636 378.471826350315Q951.3015881129444 364.1325307947857 960.8515012495242 358.85266945341374Q970.4302660874231 353.5439564107228 980.3841030424685 353.5439564107228ZM1102.3402445177649 353.5439564107228L1102.3402445177649 353.5439564107228Q1109.6108732501461 353.5439564107228 1115.0061413967937 355.6212789056888Q1120.4014095434418 357.69860140065487 1123.9213171043566 361.4493225721213L1123.9213171043566 361.4493225721213Q1127.8740001850556 365.6039675620533 1129.3454369523233 372.239858865417Q1130.788022018272 378.9046018700996 1130.788022018272 388.65647691591226L1130.788022018272 388.65647691591226L1130.788022018272 444.1094468509773Q1130.788022018272 452.85151235062597 1134.4233363844623 455.96749609307494Q1138.0586507506528 459.08347983552403 1146.5699026397501 459.08347983552403L1146.5699026397501 459.08347983552403L1146.5699026397501 463.44008673468886Q1143.0499950788353 463.238124825456 1135.779366346454 462.9207561109473Q1128.5087376140732 462.6033873964386 1121.6420327001579 462.6033873964386L1121.6420327001579 462.6033873964386Q1114.8041794875612 462.6033873964386 1108.2548432881545 462.9207561109473Q1101.7055070887477 463.238124825456 1098.3875614370659 463.44008673468886L1098.3875614370659 463.44008673468886L1098.3875614370659 459.08347983552403Q1105.8601520786797 459.08347983552403 1108.9761358211285 455.96749609307494Q1112.0921195635779 452.85151235062597 1112.0921195635779 444.1094468509773L1112.0921195635779 444.1094468509773L1112.0921195635779 384.0979081075146Q1112.0921195635779 377.6351270120648 1111.2554202253277 372.239858865417Q1110.4187208870776 366.8445907187691 1107.1007752353958 363.52664506708726Q1103.7828295837135 360.2086994154055 1096.3102389420997 360.2086994154055L1096.3102389420997 360.2086994154055Q1088.2029108714687 360.2086994154055 1081.8555365812945 365.1711920422687Q1075.5370139924398 370.16253637045094 1071.901699626249 378.78919506482373Q1068.2663852600585 387.41585375919647 1068.2663852600585 398.00442814325936L1068.2663852600585 398.00442814325936L1068.2663852600585 444.1094468509773Q1068.2663852600585 452.85151235062597 1071.3823690025079 455.96749609307494Q1074.4983527449567 459.08347983552403 1081.9709433865705 459.08347983552403L1081.9709433865705 459.08347983552403L1081.9709433865705 463.44008673468886Q1078.6529977348887 463.238124825456 1072.103661535482 462.9207561109473Q1065.5543253360752 462.6033873964386 1058.716472123479 462.6033873964386L1058.716472123479 462.6033873964386Q1051.8497672095632 462.6033873964386 1044.5791384771824 462.9207561109473Q1037.308509744801 463.238124825456 1033.7886021838867 463.44008673468886L1033.7886021838867 463.44008673468886L1033.7886021838867 459.08347983552403Q1042.2998540729836 459.08347983552403 1045.935168439174 455.96749609307494Q1049.5704828053645 452.85151235062597 1049.5704828053645 444.1094468509773L1049.5704828053645 444.1094468509773L1049.5704828053645 379.1065637793324Q1049.5704828053645 369.7586125519853 1046.2525371536826 365.2865988475446Q1042.905739800682 360.81458514310384 1033.7886021838867 360.81458514310384L1033.7886021838867 360.81458514310384L1033.7886021838867 356.457978243939Q1040.4244934872504 357.09271567295644 1046.6564609721481 357.09271567295644L1046.6564609721481 357.09271567295644Q1052.6864665478133 357.09271567295644 1058.1971414997374 356.34257143866313Q1063.678964750342 355.6212789056888 1068.2663852600585 354.1786938397402L1068.2663852600585 354.1786938397402L1068.2663852600585 378.6737882595478Q1073.6616534067066 365.1711920422687 1083.0096046340536 359.37200007715523Q1092.3575558614007 353.5439564107228 1102.3402445177649 353.5439564107228ZM1164.8618812759782 353.5439564107228L1164.8618812759782 353.5439564107228Q1172.1325100083595 353.5439564107228 1177.5277781550071 355.6212789056888Q1182.9230463016552 357.69860140065487 1186.4718055638887 361.4493225721213L1186.4718055638887 361.4493225721213Q1190.395636943269 365.6039675620533 1191.8670737105367 372.239858865417Q1193.3096587764853 378.9046018700996 1193.3096587764853 388.65647691591226L1193.3096587764853 388.65647691591226L1193.3096587764853 444.1094468509773Q1193.3096587764853 452.85151235062597 1196.9449731426757 455.96749609307494Q1200.5802875088661 459.08347983552403 1209.091539397963 459.08347983552403L1209.091539397963 459.08347983552403L1209.091539397963 463.44008673468886Q1205.5716318370487 463.238124825456 1198.3010031046674 462.9207561109473Q1191.0303743722866 462.6033873964386 1184.1636694583708 462.6033873964386L1184.1636694583708 462.6033873964386Q1177.3258162457746 462.6033873964386 1170.7764800463679 462.9207561109473Q1164.227143846961 463.238124825456 1160.9091981952793 463.44008673468886L1160.9091981952793 463.44008673468886L1160.9091981952793 459.08347983552403Q1168.381788836893 459.08347983552403 1171.497772579342 455.96749609307494Q1174.6137563217912 452.85151235062597 1174.6137563217912 444.1094468509773L1174.6137563217912 444.1094468509773L1174.6137563217912 384.0979081075146Q1174.6137563217912 377.6351270120648 1173.7770569835411 372.239858865417Q1172.9692093466097 366.8445907187691 1169.6224119936087 363.52664506708726Q1166.3044663419269 360.2086994154055 1158.831875700313 360.2086994154055L1158.831875700313 360.2086994154055Q1150.724547629682 360.2086994154055 1144.406025040827 365.1711920422687Q1138.0586507506528 370.16253637045094 1134.4233363844623 378.6737882595478Q1130.788022018272 387.21389184996366 1130.788022018272 397.80246623402655L1130.788022018272 397.80246623402655L1130.1532845892543 378.471826350315Q1135.779366346454 364.1325307947857 1145.329279483034 358.85266945341374Q1154.879192619614 353.5439564107228 1164.8618812759782 353.5439564107228ZM1270.1705910902278 353.5439564107228L1270.1705910902278 353.5439564107228Q1276.8353340949106 353.5439564107228 1283.0673015798084 355.2173550872232Q1289.2992690647066 356.8619020624046 1294.26176169157 360.2086994154055L1294.26176169157 360.2086994154055Q1299.051144110519 363.32468315785445 1301.5323904239508 367.3639213425106Q1304.0424884387016 371.40315952716674 1304.0424884387016 376.1925419461162L1304.0424884387016 376.1925419461162Q1304.0424884387016 381.7897720019968 1300.9265046962523 384.81920064048893Q1297.8105209538035 387.8197775776621 1293.021138534854 387.8197775776621L1293.021138534854 387.8197775776621Q1288.4625697264564 387.8197775776621 1285.0292172694985 385.1365693549976Q1281.595864812541 382.42450943101426 1281.595864812541 377.433165102832L1281.595864812541 377.433165102832Q1281.595864812541 372.67263438520155 1284.1925179312484 369.7586125519853Q1286.7891710499557 366.8445907187691 1290.3379303121897 366.0078913805189L1290.3379303121897 366.0078913805189Q1288.2606078172234 362.28602191037146 1282.9518947745328 359.77592389562085Q1277.6431817318417 357.29467758218925 1271.6420278574956 357.29467758218925L1271.6420278574956 357.29467758218925Q1266.4487216200805 357.29467758218925 1261.2554153826654 359.77592389562085Q1256.0621091452504 362.28602191037146 1251.6766505447663 367.998658771528Q1247.3200436456018 373.71129563268454 1244.636835422937 383.57857748377313Q1241.9247754989537 393.44585933486167 1241.9247754989537 408.18907870885664L1241.9247754989537 408.18907870885664Q1241.9247754989537 426.4522056437662 1246.0794204888857 437.27159363838086Q1250.2340654788177 448.0621299316765 1256.9853635874574 452.73610554535003Q1263.7366616960971 457.41008115902355 1271.843989766728 457.41008115902355L1271.843989766728 457.41008115902355Q1277.2392579133762 457.41008115902355 1282.8364879692567 455.33275866405756Q1288.4625697264564 453.2554361690916 1293.4539140546385 448.58146055541806Q1298.416406681502 443.90748494174454 1301.9651659437354 436.030970481665L1301.9651659437354 436.030970481665L1305.9178490244349 437.4735555476136Q1303.8405265294687 444.1094468509773 1299.051144110519 450.86074495961685Q1294.26176169157 457.6120430682564 1286.5872091407232 461.99750166874026Q1278.9126565898764 466.3541085679051 1267.6893447767961 466.3541085679051L1267.6893447767961 466.3541085679051Q1254.7926342872156 466.3541085679051 1244.4060218123855 459.6893655632224Q1234.0194093375553 453.0534742598588 1227.9028486579332 440.7049460953385Q1221.786287978311 428.3275662294994 1221.786287978311 411.3050624513056L1221.786287978311 411.3050624513056Q1221.786287978311 394.2537069717929 1227.9028486579332 381.2704413782553Q1234.0194093375553 368.28717578471776 1245.0407592414026 360.9299919483798Q1256.0621091452504 353.5439564107228 1270.1705910902278 353.5439564107228ZM1370.0840327578294 353.5439564107228L1370.0840327578294 353.5439564107228Q1383.3846670658759 353.5439564107228 1393.9732414499385 359.37200007715523Q1404.5906675353203 365.1711920422687 1410.9091901241754 377.6351270120648Q1417.2565644143492 390.09906198186087 1417.2565644143492 410.0644392945898L1417.2565644143492 410.0644392945898Q1417.2565644143492 430.00096490599975 1410.9091901241754 442.34949307052Q1404.5906675353203 454.72687293635914 1393.9732414499385 460.52606490147264Q1383.3846670658759 466.3541085679051 1370.0840327578294 466.3541085679051L1370.0840327578294 466.3541085679051Q1357.014212060335 466.3541085679051 1346.3102308709963 460.52606490147264Q1335.6062496816571 454.72687293635914 1329.2877270928025 442.34949307052Q1322.9403528026287 430.00096490599975 1322.9403528026287 410.0644392945898L1322.9403528026287 410.0644392945898Q1322.9403528026287 390.09906198186087 1329.2877270928025 377.6351270120648Q1335.6062496816571 365.1711920422687 1346.3102308709963 359.37200007715523Q1357.014212060335 353.5439564107228 1370.0840327578294 353.5439564107228ZM1370.0840327578294 357.69860140065487L1370.0840327578294 357.69860140065487Q1358.2548352170506 357.69860140065487 1350.6668377701608 369.96057446121813Q1343.0788403232714 382.2225475217814 1343.0788403232714 410.0644392945898L1343.0788403232714 410.0644392945898Q1343.0788403232714 437.8774793660792 1350.6668377701608 450.0528973226856Q1358.2548352170506 462.199463577973 1370.0840327578294 462.199463577973L1370.0840327578294 462.199463577973Q1381.9420819999273 462.199463577973 1389.5300794468167 450.0528973226856Q1397.0892251923879 437.8774793660792 1397.0892251923879 410.0644392945898L1397.0892251923879 410.0644392945898Q1397.0892251923879 382.2225475217814 1389.5300794468167 369.96057446121813Q1381.9420819999273 357.69860140065487 1370.0840327578294 357.69860140065487Z " fill="#234e70" transform="matrix(0.6173899445012286,0,0,0.6173899445012286,0,58.38189283598109)"/></g></svg>