<svg xmlns="http://www.w3.org/2000/svg" version="1.1" xmlns:xlink="http://www.w3.org/1999/xlink" xmlns:svgjs="http://svgjs.dev/svgjs" width="100%" height="100%" viewBox="0 0 1000 600"><rect width="1000" height="600" x="0" y="0" fill="#333333"/><g><rect width="333.3333333333333" height="333.3333333333333" y="135.99141527423328" fill="#EC" transform="matrix(1.098715786510796,0,0,1.098715786510796,0,-32.53520750779634)" x="113.76918792724612"/><path d="M149.38337459358806 377.6580783702491L149.38337459358806 377.6580783702491Q137.38571610021629 377.6580783702491 130.42122165772244 374.8196079462075Q123.48598979691974 371.9811375221659 119.68185417707016 369.23045484319766L119.68185417707016 369.23045484319766L119.68185417707016 351.5558555017427L123.89566594059585 349.4489496199799Q127.49496348860738 353.8675994553437 133.1719043366906 357.5546847484286Q138.8488451847738 361.24177004151363 149.17853652175 361.24177004151363L149.17853652175 361.24177004151363Q158.2499368460067 361.24177004151363 164.36581641945716 358.08141121886933Q170.4524334112165 354.92105239622504 173.72984256062537 349.1270612213772Q177.00725171003424 343.33307004652943 177.00725171003424 335.75406138852134L177.00725171003424 335.75406138852134L177.00725171003424 244.51333167551368L177.00725171003424 227.65808462141092L197.02285758678127 227.65808462141092L194.91595170501844 244.51333167551368L194.91595170501844 334.70060844764Q194.91595170501844 354.48211367085776 183.41575710039623 366.0700960205535Q171.9448250774652 377.6580783702491 149.38337459358806 377.6580783702491ZM146.2230157709438 244.10365553183757L133.5815804803667 246.21056141360043L133.5815804803667 227.65808462141092L185.84455138076174 227.65808462141092L185.84455138076174 244.10365553183757L146.2230157709438 244.10365553183757ZM270.53046279495163 375.1414963448101L252.62176279996748 375.1414963448101L252.62176279996748 227.65808462141092L270.53046279495163 227.65808462141092L270.53046279495163 375.1414963448101ZM290.34123059986064 375.1414963448101L232.84025757674962 375.1414963448101L232.84025757674962 357.8765731470313L245.4816928673267 359.98347902879414L277.69979530928356 359.98347902879414L290.34123059986064 357.8765731470313L290.34123059986064 375.1414963448101ZM245.4816928673267 242.81610193742696L232.84025757674962 244.9230078191898L232.84025757674962 227.65808462141092L290.34123059986064 227.65808462141092L290.34123059986064 244.9230078191898L277.69979530928356 242.81610193742696L245.4816928673267 242.81610193742696ZM329.52382748431125 375.1414963448101L309.3033835357262 375.1414963448101L365.13638940244164 227.65808462141092L385.3568333510267 227.65808462141092L441.18983921774213 375.1414963448101L420.9693952691571 375.1414963448101L415.906968636588 358.28624929070736L377.98266276485674 254.19924621528455L376.10985753662317 240.7091960556641L374.4126277985364 240.7091960556641L372.5105599886116 254.19924621528455L334.58625411688035 358.28624929070736L329.52382748431125 375.1414963448101ZM415.08761634923576 332.59370256587715L335.02519284224763 332.59370256587715L335.02519284224763 316.14813165545047L415.08761634923576 316.14813165545047L415.08761634923576 332.59370256587715Z " fill="#333333" transform="matrix(1.098715786510796,0,0,1.098715786510796,0,-32.53520750779634)"/><path d="M559.7259638168073 377.6580860243829L559.7259638168073 377.6580860243829Q547.8944900689038 377.6580860243829 541.0264638445111 374.85893247914726Q534.1872948731622 372.0597789339115 530.4358519774854 369.3471971478068L530.4358519774854 369.3471971478068L530.4358519774854 351.91741630943204L534.5912964157734 349.83969409028805Q538.1407385401445 354.19713929988177 543.7390456306158 357.83315318338384Q549.3373527210872 361.4691670668858 559.5239630455015 361.4691670668858L559.5239630455015 361.4691670668858Q568.4697114890383 361.4691670668858 574.5008773751647 358.35258373816976Q580.5031860082473 355.2360004094538 583.735198349138 349.52226430680776Q586.9672106900288 343.8085282041617 586.9672106900288 336.33449966585204L586.9672106900288 336.33449966585204L586.9672106900288 246.3575846756988L586.9672106900288 229.7358069225467L606.7055717718969 229.7358069225467L604.6278495527529 246.3575846756988L604.6278495527529 335.29563855628Q604.6278495527529 354.80314161379874 593.2869491065918 366.2306138190909Q581.9749059134743 377.6580860243829 559.7259638168073 377.6580860243829ZM556.6093804880912 245.95358313308745L544.1430471732272 248.03130535223147L544.1430471732272 229.7358069225467L595.6821011092162 229.7358069225467L595.6821011092162 245.95358313308745L556.6093804880912 245.95358313308745ZM662.8040716887851 251.7538909948645L662.8040716887851 251.7538909948645Q657.8117669122308 251.7538909948645 654.2623247878598 248.55073590701747Q650.7417399165324 245.3187235661268 650.7417399165324 239.7204164756554L650.7417399165324 239.7204164756554Q650.7417399165324 234.09325213214038 654.2623247878598 230.89009704429336Q657.8117669122308 227.6580847034027 662.8040716887851 227.6580847034027L662.8040716887851 227.6580847034027Q667.7675192122958 227.6580847034027 671.3169613366669 230.89009704429336Q674.8375462079943 234.09325213214038 674.8375462079943 239.7204164756554L674.8375462079943 239.7204164756554Q674.8375462079943 245.3187235661268 671.3169613366669 248.55073590701747Q667.7675192122958 251.7538909948645 662.8040716887851 251.7538909948645ZM676.9152684271382 375.17636226262755L655.3011858974318 375.17636226262755L657.3789081165759 358.5545845094755L657.3789081165759 283.3525830776797L635.793682839913 283.3525830776797L635.793682839913 269.212529086283L676.9152684271382 269.212529086283L674.8375462079943 285.83430683943504L674.8375462079943 358.5545845094755L676.9152684271382 375.17636226262755ZM796.3842960279189 375.17636226262755L779.9645190460725 375.17636226262755L776.8479357173566 364.1528915999469L776.8479357173566 307.65039014044714Q776.8479357173566 299.33950126387106 774.5682127269068 293.6257651612251Q772.2884897364571 287.91202905857904 765.6513215364138 284.795445729863Q758.9852960833267 281.67886240114706 745.9129604545457 281.67886240114706L745.9129604545457 281.67886240114706Q738.2080738918867 281.67886240114706 731.6574774509743 283.12172505333035Q725.1357382631055 284.59344495855737 719.1045723769791 288.54688862553974L719.1045723769791 288.54688862553974L715.7859882769575 286.46916640639574L715.7859882769575 271.4922520767326Q724.9048802387562 268.5776695193223 732.9271965848956 267.6542374219249Q740.9206556779912 266.73080532452764 747.7598246493403 266.73080532452764L747.7598246493403 266.73080532452764Q765.8533223077194 266.73080532452764 775.9245036199592 271.4922520767326Q785.995684932199 276.2825560819813 790.151129370487 285.51687705595464Q794.3065738087749 294.7800552829717 794.3065738087749 308.28524970740784L794.3065738087749 308.28524970740784L794.3065738087749 358.5545845094755L796.3842960279189 375.17636226262755ZM744.8740993449736 377.6580860243829L744.8740993449736 377.6580860243829Q735.7263501301313 377.6580860243829 726.7806016865945 374.6569317078415Q717.8637104961016 371.65577739130026 711.9191163691062 364.26832061212144Q706.0033794951545 356.88086383294274 706.0033794951545 344.0105289754674L706.0033794951545 344.0105289754674Q706.0033794951545 334.0259194223587 709.7548223908311 327.38875122231525Q713.4774080334641 320.7515830222719 719.8260037030708 317.00014012659517Q726.1745993726776 313.24869723091854 734.0526294535986 311.69040556656057Q741.9595167875633 310.1321139022025 750.2704056641393 310.1321139022025L750.2704056641393 310.1321139022025Q755.2627104406937 310.1321139022025 759.5047266381127 310.56497269785746Q763.7756000885754 310.9689742404688 767.9310445268635 312.00783535004086L767.9310445268635 312.00783535004086L778.7236571651948 319.71272191269986L778.7236571651948 329.2644726701536Q773.3273508460292 326.3498901127433 767.2096132007717 325.1955999909966Q761.0630183024708 324.0701671222936 753.1849882215497 324.0701671222936L753.1849882215497 324.0701671222936Q738.6409326875415 324.0701671222936 731.0514751370572 328.31218331971263Q723.4620175865729 332.5830567701753 723.4620175865729 344.21252974677304L723.4620175865729 344.21252974677304Q723.4620175865729 353.7642805042268 729.0603246770442 358.4391554973008Q734.6874890205593 363.11403049037483 747.1538223354233 363.11403049037483L747.1538223354233 363.11403049037483Q760.0241571928988 363.11403049037483 767.6136147433831 358.95858605208684Q775.2030722938674 354.80314161379874 779.3585167321555 349.00283375202173L779.3585167321555 349.00283375202173L783.5139611704436 358.35258373816976L763.5735993172697 375.17636226262755Q759.4181548789817 376.2152233721996 754.627850873733 376.93665469829125Q749.8375468684843 377.6580860243829 744.8740993449736 377.6580860243829Z " fill="#FFFF" transform="matrix(1.098715786510796,0,0,1.098715786510796,0,-32.53520750779634)"/></g></svg>